<svg width="381" height="444" viewBox="0 0 381 444" fill="none" xmlns="http://www.w3.org/2000/svg">
<mask id="mask0_967_168" style="mask-type:alpha" maskUnits="userSpaceOnUse" x="0" y="0" width="381" height="444">
<rect width="381" height="444" fill="#C4C4C4"/>
</mask>
<g mask="url(#mask0_967_168)">
<path fill-rule="evenodd" clip-rule="evenodd" d="M107.5 444C258.55 444 381 321.55 381 170.5C381 19.4501 258.55 -103 107.5 -103C-43.5499 -103 -166 19.4501 -166 170.5C-166 321.55 -43.5499 444 107.5 444ZM107.5 324C192.828 324 262 254.828 262 169.5C262 84.172 192.828 15 107.5 15C22.172 15 -47 84.172 -47 169.5C-47 254.828 22.172 324 107.5 324Z" fill="#EFF1F7"/>
<circle cx="107.5" cy="172.5" r="79.5" fill="#EFF1F7"/>
</g>
</svg>
